<?xml version="1.0" encoding="UTF-8" standalone="no"?> <svg width="512" height="512" viewBox="0 0 512 512" fill="none" xmlns="http://www.w3.org/2000/svg">
<path fill-rule="evenodd" clip-rule="evenodd" d="M128 24C70.5624 24 24 70.5624 24 128V384C24 441.438 70.5624 488 128 488H384C441.438 488 488 441.438 488 384V128C488 70.5624 441.438 24 384 24H128ZM40 128C40 79.3989 79.3989 40 128 40H384C432.601 40 472 79.3989 472 128V384C472 432.601 432.601 472 384 472H128C79.3989 472 40 432.601 40 384V128ZM249.102 101.522C234.478 96.4953 218.548 104.275 213.521 118.899L195.267 172.002H144C128.536 172.002 116 184.538 116 200.002C116 215.466 128.536 228.002 144 228.002H176.017L156.767 284.002H120C104.536 284.002 92 296.538 92 312.002C92 327.466 104.536 340.002 120 340.002H137.517L125.521 374.899C120.494 389.523 128.274 405.454 142.898 410.481C157.522 415.508 173.452 407.728 178.479 393.104L196.733 340.002H257.517L245.521 374.899C240.494 389.523 248.274 405.454 262.898 410.481C277.522 415.508 293.452 407.728 298.479 393.104L316.733 340.002H368C383.464 340.002 396 327.466 396 312.002C396 296.538 383.464 284.002 368 284.002H335.983L355.233 228.002H392C407.464 228.002 420 215.466 420 200.002C420 184.538 407.464 172.002 392 172.002H374.483L386.479 137.104C391.506 122.48 383.726 106.549 369.102 101.522C354.478 96.4953 338.548 104.275 333.521 118.899L315.267 172.002H254.483L266.479 137.104C271.506 122.48 263.726 106.549 249.102 101.522ZM228.652 124.101C230.806 117.833 237.633 114.499 243.901 116.653C250.168 118.808 253.503 125.635 251.348 131.902L235.708 177.401C234.868 179.845 235.26 182.545 236.762 184.649C238.263 186.753 240.689 188.002 243.274 188.002H320.976C324.392 188.002 327.431 185.833 328.542 182.602L348.652 124.101C350.806 117.833 357.633 114.499 363.901 116.653C370.168 118.808 373.503 125.635 371.348 131.902L355.708 177.401C354.868 179.845 355.26 182.545 356.762 184.649C358.263 186.753 360.689 188.002 363.274 188.002H392C398.627 188.002 404 193.374 404 200.002C404 206.629 398.627 212.002 392 212.002H349.524C346.108 212.002 343.069 214.17 341.958 217.401L317.208 289.401C316.368 291.845 316.76 294.545 318.262 296.649C319.763 298.753 322.189 300.002 324.774 300.002H368C374.627 300.002 380 305.374 380 312.002C380 318.629 374.627 324.002 368 324.002H311.024C307.608 324.002 304.569 326.17 303.458 329.401L283.348 387.902C281.194 394.17 274.367 397.504 268.099 395.35C261.832 393.195 258.497 386.368 260.652 380.101L276.292 334.602C277.132 332.158 276.74 329.458 275.238 327.354C273.737 325.25 271.311 324.002 268.726 324.002H191.024C187.608 324.002 184.569 326.17 183.458 329.401L163.348 387.902C161.194 394.17 154.367 397.504 148.099 395.35C141.832 393.195 138.497 386.368 140.652 380.101L156.292 334.602C157.132 332.158 156.74 329.458 155.238 327.354C153.737 325.25 151.311 324.002 148.726 324.002H120C113.373 324.002 108 318.629 108 312.002C108 305.374 113.373 300.002 120 300.002H162.476C165.892 300.002 168.931 297.833 170.042 294.602L194.792 222.602C195.632 220.158 195.24 217.458 193.738 215.354C192.237 213.25 189.811 212.002 187.226 212.002H144C137.373 212.002 132 206.629 132 200.002C132 193.374 137.373 188.002 144 188.002H200.976C204.392 188.002 207.431 185.833 208.542 182.602L228.652 124.101ZM229.524 212.002C226.108 212.002 223.069 214.17 221.958 217.401L197.208 289.401C196.368 291.845 196.76 294.545 198.262 296.649C199.763 298.753 202.189 300.002 204.774 300.002H282.476C285.892 300.002 288.931 297.833 290.042 294.602L314.792 222.602C315.632 220.158 315.24 217.458 313.738 215.354C312.237 213.25 309.811 212.002 307.226 212.002H229.524ZM215.983 284.002L235.233 228.002H296.017L276.767 284.002H215.983Z" fill="black"/>
</svg>
